<svg width="662" height="626" viewBox="0 0 662 626" fill="none" xmlns="http://www.w3.org/2000/svg">
<rect width="5.21017" height="662" rx="2.60509" transform="matrix(0 1 1 0 0 67.7324)" fill="#F6F6F6"/>
<rect width="5.21017" height="662" rx="2.60509" transform="matrix(0 1 1 0 0 166.725)" fill="#F6F6F6"/>
<rect width="5.21017" height="662" rx="2.60509" transform="matrix(0 1 1 0 0 265.715)" fill="#F6F6F6"/>
<rect width="5.21017" height="662" rx="2.60509" transform="matrix(0 1 1 0 0 364.713)" fill="#F6F6F6"/>
<rect width="5.21017" height="662" rx="2.60509" transform="matrix(0 1 1 0 0 463.701)" fill="#F6F6F6"/>
<rect width="5.21017" height="662" rx="2.60509" transform="matrix(0 1 1 0 0 562.697)" fill="#F6F6F6"/>
<rect width="4.99623" height="625.22" rx="2.49811" transform="matrix(1 0 0 -1 331.001 625.221)" fill="#F6F6F6"/>
<rect width="4.99623" height="625.22" rx="2.49811" transform="matrix(1 0 0 -1 141.144 625.221)" fill="#F6F6F6"/>
<rect width="4.99623" height="625.22" rx="2.49811" transform="matrix(1 0 0 -1 46.2153 625.221)" fill="#F6F6F6"/>
<rect width="4.99623" height="625.22" rx="2.49811" transform="matrix(1 0 0 -1 425.929 625.221)" fill="#F6F6F6"/>
<rect width="4.99623" height="625.22" rx="2.49811" transform="matrix(1 0 0 -1 520.856 625.221)" fill="#F6F6F6"/>
<rect width="4.99623" height="625.22" rx="2.49811" transform="matrix(1 0 0 -1 615.785 625.221)" fill="#F6F6F6"/>
<rect width="4.99623" height="625.22" rx="2.49811" transform="matrix(1 0 0 -1 236.071 625.221)" fill="#F6F6F6"/>
</svg>
