<svg width="27" height="27" viewBox="0 0 27 27" fill="none" xmlns="http://www.w3.org/2000/svg">
<g clip-path="url(#clip0_1848_225)">
<path d="M15.195 13.7568L22.426 6.52654C22.8749 6.07768 22.8749 5.34993 22.426 4.9011C21.9772 4.45224 21.2494 4.45224 20.8006 4.9011L13.5703 12.1321L6.34002 4.9011C5.89116 4.45224 5.16341 4.45224 4.71458 4.9011C4.26575 5.34997 4.26571 6.07771 4.71458 6.52654L11.9456 13.7568L4.71458 20.9871C4.26571 21.436 4.26571 22.1637 4.71458 22.6126C5.16344 23.0614 5.89119 23.0614 6.34002 22.6126L13.5703 15.3815L20.8006 22.6126C21.2494 23.0614 21.9772 23.0614 22.426 22.6126C22.8749 22.1637 22.8749 21.436 22.426 20.9871L15.195 13.7568Z" fill="#0C0C0C"/>
</g>
<g clip-path="url(#clip1_1848_225)">
<path d="M14.6966 12.5855L14.6972 2.35984C14.6972 1.72505 14.1826 1.21046 13.5478 1.21048C12.913 1.21048 12.3985 1.72508 12.3985 2.35984L12.399 12.5855L2.17331 12.585C1.53852 12.585 1.02392 13.0996 1.02394 13.7344C1.02397 14.3691 1.53854 14.8838 2.17331 14.8837L12.399 14.8832L12.3985 25.1089C12.3985 25.7437 12.9131 26.2583 13.5478 26.2583C14.1826 26.2582 14.6972 25.7437 14.6972 25.1089L14.6966 14.8832L24.9223 14.8838C25.5571 14.8838 26.0717 14.3692 26.0717 13.7344C26.0717 13.0996 25.5571 12.585 24.9224 12.585L14.6966 12.5855Z" fill="#0C0C0C"/>
</g>
<defs>
<clipPath id="clip0_1848_225">
<rect width="18.3848" height="18.3848" fill="white" transform="translate(4.37793 4.56445)"/>
</clipPath>
<clipPath id="clip1_1848_225">
<rect width="18.3848" height="18.3848" fill="white" transform="translate(0.547852 13.7344) rotate(-45)"/>
</clipPath>
</defs>
</svg>
